<?xml version="1.0" encoding="utf-8"?>
<!-- Generator: Adobe Illustrator 27.0.0, SVG Export Plug-In . SVG Version: 6.00 Build 0)  -->
<svg version="1.1" id="Capa_1" xmlns="http://www.w3.org/2000/svg" xmlns:xlink="http://www.w3.org/1999/xlink" x="0px" y="0px"
	 viewBox="0 0 330 335" style="enable-background:new 0 0 330 335;" xml:space="preserve">
<style type="text/css">
	.st0{fill:#FFC5FE;}
	.st1{fill:#212121;}
	.st2{font-family:'COCOGOOSE-DemiBold';}
	.st3{font-size:37.1655px;}
	.st4{fill:#9C6BD7;}
	.st5{font-family:'CocogoosePro-Thin';}
	.st6{font-size:46.8906px;}
	.st7{fill:none;stroke:#000000;stroke-miterlimit:10;}
	.st8{fill:none;}
	.st9{font-family:'AvenirNext-Medium';}
	.st10{font-size:11px;}
</style>
<g>
	<path class="st0" d="M300.3,330.8H29.7c-13.7,0-24.9-11.1-24.9-24.9V29.1c0-13.7,11.1-24.9,24.9-24.9h270.6
		c13.7,0,24.9,11.1,24.9,24.9v276.8C325.2,319.7,314.1,330.8,300.3,330.8z"/>
	<text transform="matrix(1 0 0 1 29.4357 125.056)"><tspan x="0" y="0" class="st1 st2 st3">tarjetas</tspan><tspan x="0" y="36" class="st1 st2 st3">digitales</tspan></text>
	<g>
		<text transform="matrix(1 0 0 1 67.4297 74.4368)" class="st4 st5 st6">05</text>
		<line class="st7" x1="62.9" y1="77.6" x2="31.3" y2="77.6"/>
	</g>
	<rect x="30.2" y="197.5" class="st8" width="272.4" height="116.4"/>
	<text transform="matrix(1 0 0 1 30.2193 205.8165)"><tspan x="0" y="0" class="st1 st9 st10">(Personales o Empresariales).</tspan><tspan x="0" y="13.2" class="st1 st9 st10">Las tarjetas digitales (Personales o Empresaria</tspan><tspan x="253.6" y="13.2" class="st1 st9 st10">-</tspan><tspan x="0" y="26.4" class="st1 st9 st10">les) te ayudarán a compartir tus datos de una </tspan><tspan x="0" y="39.6" class="st1 st9 st10">manera facil y rapida.</tspan><tspan x="0" y="66" class="st1 st9 st10">En ella colocaremos los datos personales que le </tspan><tspan x="0" y="79.2" class="st1 st9 st10">sean de mayor utilidad a tus clientes para estar </tspan><tspan x="0" y="92.4" class="st1 st9 st10">en contacto contigo.</tspan></text>
</g>
</svg>
