<?xml version="1.0" encoding="utf-8"?>
<!-- Generator: Adobe Illustrator 27.0.0, SVG Export Plug-In . SVG Version: 6.00 Build 0)  -->
<svg version="1.1" id="Capa_1" xmlns="http://www.w3.org/2000/svg" xmlns:xlink="http://www.w3.org/1999/xlink" x="0px" y="0px"
	 viewBox="0 0 330 335" style="enable-background:new 0 0 330 335;" xml:space="preserve">
<style type="text/css">
	.st0{fill:#C8C8C8;}
	.st1{fill:#212121;}
	.st2{font-family:'COCOGOOSE-DemiBold';}
	.st3{font-size:37.1655px;}
	.st4{fill:none;}
	.st5{font-family:'AvenirNext-Medium';}
	.st6{font-size:11px;}
	.st7{fill:#9C6BD7;}
	.st8{font-family:'CocogoosePro-Thin';}
	.st9{font-size:46.8906px;}
	.st10{fill:none;stroke:#000000;stroke-miterlimit:10;}
</style>
<g>
	<path class="st0" d="M300.3,330.8H29.7c-13.7,0-24.9-11.1-24.9-24.9V29.1c0-13.7,11.1-24.9,24.9-24.9h270.6
		c13.7,0,24.9,11.1,24.9,24.9v276.8C325.2,319.7,314.1,330.8,300.3,330.8z"/>
	<text transform="matrix(1 0 0 1 28.0873 125.056)" class="st1 st2 st3">diseño</text>
	<rect x="29.9" y="157.5" class="st4" width="272.4" height="160.2"/>
	<text transform="matrix(1 0 0 1 29.8705 165.8156)"><tspan x="0" y="0" class="st1 st5 st6">(Desarrollo de logotipo, Identidad Corporativa, </tspan><tspan x="0" y="13.2" class="st1 st5 st6">Empaques, Material POP, Material para Redes </tspan><tspan x="0" y="26.4" class="st1 st5 st6">Sociales).</tspan><tspan x="0" y="52.8" class="st1 st5 st6">Damos identidad grafica a tu marca, </tspan><tspan x="0" y="66" class="st1 st5 st6">adecuándonos a tu idea y desarrollándola paso </tspan><tspan x="0" y="79.2" class="st1 st5 st6">a paso hasta posicionarla en el mercado </tspan><tspan x="0" y="92.4" class="st1 st5 st6">competitivo. A partir de ahí tu marca tendrá </tspan><tspan x="0" y="105.6" class="st1 st5 st6">mayor impacto trayendo consigo mejores </tspan><tspan x="0" y="118.8" class="st1 st5 st6">resultados.</tspan></text>
	<g>
		<text transform="matrix(1 0 0 1 66.0815 74.4368)" class="st7 st8 st9">01</text>
		<line class="st10" x1="61.5" y1="77.6" x2="29.9" y2="77.6"/>
	</g>
</g>
</svg>
