<?xml version="1.0" encoding="utf-8"?>
<!-- Generator: Adobe Illustrator 27.0.0, SVG Export Plug-In . SVG Version: 6.00 Build 0)  -->
<svg version="1.1" id="Capa_1" xmlns="http://www.w3.org/2000/svg" xmlns:xlink="http://www.w3.org/1999/xlink" x="0px" y="0px"
	 viewBox="0 0 330 335" style="enable-background:new 0 0 330 335;" xml:space="preserve">
<style type="text/css">
	.st0{fill:#DADADA;}
	.st1{fill:#212121;}
	.st2{font-family:'COCOGOOSE-DemiBold';}
	.st3{font-size:37.1655px;}
	.st4{font-family:'CocogoosePro-Thin';}
	.st5{font-size:46.8906px;}
	.st6{fill:none;stroke:#FFFFFF;stroke-miterlimit:10;}
	.st7{fill:none;}
	.st8{font-family:'AvenirNext-Medium';}
	.st9{font-size:11px;}
</style>
<g>
	<path class="st0" d="M300.3,330.8H29.7c-13.7,0-24.9-11.1-24.9-24.9V29.1c0-13.7,11.1-24.9,24.9-24.9h270.6
		c13.7,0,24.9,11.1,24.9,24.9v276.8C325.2,319.7,314.1,330.8,300.3,330.8z"/>
	<text transform="matrix(1 0 0 1 28.4336 125.056)" class="st1 st2 st3">e-commerce</text>
	<g>
		<text transform="matrix(1 0 0 1 66.4278 74.4368)" class="st1 st4 st5">04</text>
		<line class="st6" x1="61.9" y1="77.6" x2="30.3" y2="77.6"/>
	</g>
	<rect x="31.2" y="157.5" class="st7" width="272.4" height="160.2"/>
	<text transform="matrix(1 0 0 1 31.2168 165.8156)"><tspan x="0" y="0" class="st1 st8 st9">(Tiendas Online).</tspan><tspan x="0" y="13.2" class="st1 st8 st9">Crear tu tienda en linea es vital en el mercado </tspan><tspan x="0" y="26.4" class="st1 st8 st9">actual. Si tu producto aún no se encuentra en </tspan><tspan x="0" y="39.6" class="st1 st8 st9">internet y necesitas que así sea nosotros creamos </tspan><tspan x="0" y="52.8" class="st1 st8 st9">tu tienda en linea desde 0. Comienza a vender </tspan><tspan x="0" y="66" class="st1 st8 st9">en linea hoy mismo.</tspan></text>
</g>
</svg>
