<?xml version="1.0" encoding="utf-8"?>
<!-- Generator: Adobe Illustrator 27.0.0, SVG Export Plug-In . SVG Version: 6.00 Build 0)  -->
<svg version="1.1" id="Capa_1" xmlns="http://www.w3.org/2000/svg" xmlns:xlink="http://www.w3.org/1999/xlink" x="0px" y="0px"
	 viewBox="0 0 330 335" style="enable-background:new 0 0 330 335;" xml:space="preserve">
<style type="text/css">
	.st0{fill:#DDDDDD;}
	.st1{fill:#212121;}
	.st2{font-family:'COCOGOOSE-DemiBold';}
	.st3{font-size:37.1655px;}
	.st4{font-family:'CocogoosePro-Thin';}
	.st5{font-size:46.8906px;}
	.st6{fill:none;stroke:#FFFFFF;stroke-miterlimit:10;}
	.st7{fill:none;}
	.st8{font-family:'AvenirNext-Medium';}
	.st9{font-size:11px;}
</style>
<g>
	<path class="st0" d="M300.3,330.8H29.7c-13.7,0-24.9-11.1-24.9-24.9V29.1c0-13.7,11.1-24.9,24.9-24.9h270.6
		c13.7,0,24.9,11.1,24.9,24.9v276.8C325.2,319.7,314.1,330.8,300.3,330.8z"/>
	<text transform="matrix(1 0 0 1 27.969 125.056)" class="st1 st2 st3">social media</text>
	<g>
		<text transform="matrix(1 0 0 1 65.9633 74.4368)" class="st1 st4 st5">06</text>
		<line class="st6" x1="61.4" y1="77.6" x2="29.8" y2="77.6"/>
	</g>
	<rect x="29.8" y="157.5" class="st7" width="272.4" height="160.2"/>
	<text transform="matrix(1 0 0 1 29.7523 165.8156)"><tspan x="0" y="0" class="st1 st8 st9">(Creación de Contenido, Parrilla de contenidos, </tspan><tspan x="0" y="13.2" class="st1 st8 st9">Pautas Publicitarias, Administración de Redes </tspan><tspan x="0" y="26.4" class="st1 st8 st9">Sociales, Facebook Ads, Instagram Ads).</tspan><tspan x="0" y="52.8" class="st1 st8 st9">Comunicación estrategica en redes sociales</tspan><tspan x="0" y="66" class="st1 st8 st9">para conectar con tu audiencia, elevar su </tspan><tspan x="0" y="79.2" class="st1 st8 st9">compromiso y alcanzar el posicionamiento de </tspan><tspan x="0" y="92.4" class="st1 st8 st9">tu marca. Elevamos la calidad del contenido en </tspan><tspan x="0" y="105.6" class="st1 st8 st9">tus redes sociales, las potencialisamos y creamos</tspan><tspan x="0" y="118.8" class="st1 st8 st9">contenido estrategico.</tspan></text>
</g>
</svg>
